<svg width="200" height="200" viewBox="0 0 200 200" fill="none" xmlns="http://www.w3.org/2000/svg">
<path d="M104.933 25.0601C106.147 22.7548 107.873 19.8627 107.873 21.4605C107.873 23.3081 108.643 25.3097 109.028 26.0796L109.503 26.7906C110.6 28.4369 112.624 29.2015 114.536 28.6919L120.533 27.0933C121.319 26.8839 122.036 26.4693 122.722 26.0328C125.563 24.2243 132.481 21.37 133.281 23.7701C134.146 26.3636 134.363 29.6041 134.418 31.0699C134.437 31.5722 134.637 32.0543 134.992 32.4097C135.876 33.293 137.357 33.0943 137.977 32.0093L138.886 30.4204C140.058 28.3691 142.947 28.1889 144.365 30.0786C144.671 30.4866 145.068 30.8184 145.524 31.0464L145.713 31.1402C147.777 32.1722 150.293 31.3344 151.544 29.3951C153.336 26.615 155.225 24.2788 155.225 24.9244C155.225 26.0792 158.69 27.2344 158.69 28.3892V32.0953C158.69 32.6926 158.857 33.278 159.174 33.7847C159.604 34.4745 159.756 35.3027 159.597 36.1001L158.893 39.6148C158.759 40.2854 158.776 40.9777 158.942 41.6411L160.224 46.7661C160.672 47.7021 160.941 48.7394 160.99 49.8345L161 49.8726C160.997 49.877 160.994 49.8809 160.991 49.8853C160.995 49.988 161 50.0912 161 50.1949V132.332C161 157.845 140.316 178.528 114.803 178.528H87.0848C61.5711 178.528 40.8876 157.845 40.8876 132.332V50.1949C40.8876 49.6913 40.9367 49.1988 41.0263 48.7212L40.8886 48.7173L40.0243 40.0826C39.8464 38.3036 40.6508 36.4744 42.2421 35.6597C43.352 35.0917 44.4551 34.7926 45.5077 35.3189C46.7349 35.9325 48.7097 33.5235 50.3485 30.9341C51.6335 28.9043 54.2181 27.8458 56.1796 29.2329C57.3196 30.0392 58.2116 30.9645 58.2118 31.854C58.2118 34.1637 59.3666 36.4737 60.5214 36.4742C61.6763 36.4742 63.9866 37.6289 65.1415 33.0093C66.2964 28.3896 67.4511 26.08 67.4511 27.2349C67.4516 28.3901 70.9159 31.8545 70.9159 33.0093C70.9163 33.6877 75.0676 34.408 78.7977 34.8951C80.9388 35.1745 82.9379 33.8591 83.7118 31.8433C84.9296 28.6712 86.4226 25.4175 87.0848 26.0796C87.6884 26.6832 88.6534 27.9771 89.4647 29.1236C90.1724 30.1235 91.2244 30.8344 92.4257 31.0747L94.3612 31.4615C95.6133 31.7119 96.9139 31.4332 97.953 30.691L103.474 26.7466C104.088 26.3087 104.581 25.7266 104.933 25.0601Z" fill="url(#paint0_linear_2082_110)"/>
<path d="M78.6348 86.1357C87.4125 86.1357 94.5281 93.2516 94.5283 102.029C94.5283 110.807 87.4127 117.924 78.6348 117.924C69.8569 117.924 62.7412 110.807 62.7412 102.029C62.7414 93.2516 69.8571 86.1358 78.6348 86.1357ZM122.343 86.1357C131.121 86.1357 138.237 93.2524 138.237 102.03C138.237 110.808 131.121 117.924 122.343 117.924C113.565 117.924 106.449 110.808 106.449 102.03C106.449 93.2524 113.565 86.1359 122.343 86.1357Z" fill="white"/>
<defs>
<linearGradient id="paint0_linear_2082_110" x1="189.565" y1="187.378" x2="-8.67286" y2="36.9268" gradientUnits="userSpaceOnUse">
<stop/>
<stop offset="1" stop-color="#642714"/>
</linearGradient>
</defs>
</svg>
